<svg width="24" height="24" viewBox="0 0 24 24" fill="none" xmlns="http://www.w3.org/2000/svg">
<path fill-rule="evenodd" clip-rule="evenodd" d="M20.7068 4.70711C21.0974 4.31658 21.0974 3.68342 20.7068 3.29289C20.3163 2.90237 19.6832 2.90237 19.2926 3.29289L11.9999 10.5857L4.70711 3.29291C4.31658 2.90239 3.68342 2.90239 3.29289 3.29291C2.90237 3.68343 2.90237 4.3166 3.29289 4.70712L10.5856 11.9999L3.29289 19.2926C2.90237 19.6832 2.90237 20.3163 3.29289 20.7068C3.68342 21.0974 4.31658 21.0974 4.70711 20.7068L11.9999 13.4141L19.2926 20.7069C19.6832 21.0974 20.3163 21.0974 20.7068 20.7069C21.0974 20.3163 21.0974 19.6832 20.7068 19.2926L13.4141 11.9999L20.7068 4.70711Z" fill="#A2AEBC"/>
</svg>
