<svg width="75" height="76" viewBox="0 0 75 76" fill="none" xmlns="http://www.w3.org/2000/svg">
<path d="M10.1389 19.4912C12.0995 18.1209 15.0551 18.3837 16.8154 19.8375L14.7964 16.9028C13.1716 14.5855 13.7535 12.0784 16.0729 10.4516C18.3923 8.83092 24.9645 13.1881 24.9645 13.1881C23.3251 10.8478 23.6317 7.88189 25.9719 6.2404C28.3121 4.60516 31.5409 5.17041 33.1803 7.5148L54.9139 38.2172L52.1441 65.0714L29.0276 56.6407L8.86452 26.7455C7.21051 24.3907 7.78201 21.1432 10.1389 19.4912Z" fill="#DC8638"/>
<path d="M5.62107 36.5715C5.62107 36.5715 3.25999 33.13 6.70358 30.771C10.143 28.412 12.502 31.8514 12.502 31.8514L23.4543 47.8242C23.8318 47.1943 24.2448 46.5727 24.7058 45.9595L9.50476 23.7942C9.50476 23.7942 7.14576 20.3547 10.5873 17.9957C14.0267 15.6367 16.3857 19.0762 16.3857 19.0762L30.6836 39.9275C31.2154 39.4937 31.7598 39.0577 32.3209 38.6302L15.7454 14.4541C15.7454 14.4541 13.3864 11.0147 16.8279 8.6557C20.2673 6.29671 22.6263 9.73613 22.6263 9.73613L39.2018 33.908C39.8109 33.5347 40.4136 33.2114 41.0185 32.8693L25.5255 10.2763C25.5255 10.2763 23.1665 6.83692 26.6059 4.47793C30.0453 2.11893 32.4043 5.55835 32.4043 5.55835L48.7859 29.4486L51.2763 33.082C40.9559 40.1611 39.9735 53.4787 45.87 62.0783C47.0484 63.799 48.7692 62.6206 48.7692 62.6206C41.6922 52.2982 43.8531 40.6992 54.1755 33.6223L51.1324 18.392C51.1324 18.392 49.9956 14.379 54.0065 13.2402C58.0195 12.1035 59.1584 16.1165 59.1584 16.1165L62.6729 26.5536C64.0662 30.6918 65.5491 34.8153 67.5118 38.7157C73.0537 49.7285 69.7436 63.4153 59.2939 70.584C47.8953 78.3994 32.3125 75.4939 24.4951 64.0973L5.62107 36.5715Z" fill="#FFC737"/>
<path d="M25.0288 67.2445C16.6858 67.2445 8.25514 58.8138 8.25514 50.4708C8.25514 49.3173 7.41041 48.385 6.25698 48.385C5.10356 48.385 4.08362 49.3173 4.08362 50.4708C4.08362 62.9853 12.5143 71.416 25.0288 71.416C26.1823 71.416 27.1146 70.396 27.1146 69.2426C27.1146 68.0892 26.1823 67.2445 25.0288 67.2445Z" fill="#010101"/>
<path d="M14.6003 71.3282C8.34304 71.3282 4.17152 67.1567 4.17152 60.8994C4.17152 59.746 3.23919 58.8136 2.08576 58.8136C0.932335 58.8136 0 59.746 0 60.8994C0 69.2424 6.25728 75.4997 14.6003 75.4997C15.7537 75.4997 16.6861 74.5674 16.6861 73.414C16.6861 72.2605 15.7537 71.3282 14.6003 71.3282ZM50.0583 4.58386C48.9069 4.58386 47.9725 5.51828 47.9725 6.66962C47.9725 7.82096 48.9069 8.75538 50.0583 8.75538C58.4013 8.75538 66.7443 16.2412 66.7443 25.4415C66.7443 26.5928 67.6788 27.5272 68.8301 27.5272C69.9814 27.5272 70.9159 26.5928 70.9159 25.4415C70.9159 13.9406 62.5728 4.58386 50.0583 4.58386Z" fill="#010101"/>
<path d="M60.4873 0.500244C59.3359 0.500244 58.4015 1.34706 58.4015 2.4984C58.4015 3.64974 59.3359 4.67177 60.4873 4.67177C66.7445 4.67177 70.8285 9.31258 70.8285 15.013C70.8285 16.1643 71.8484 17.0987 73.0018 17.0987C74.1552 17.0987 75 16.1643 75 15.013C75 7.0099 68.8303 0.500244 60.4873 0.500244Z" fill="#010101"/>
</svg>
