<svg width="44" height="44" viewBox="0 0 44 44" fill="none" xmlns="http://www.w3.org/2000/svg">
<path d="M21.0735 32.2927C21.0735 32.2927 29.965 32.056 31.8 27.7636C32.9882 24.9839 31.1232 17.1449 31.1232 12.2812C31.1232 10.6351 29.8261 9.78043 27.3265 9.78043H11.2139C9.96348 9.78043 7.51386 9.48923 7.51386 12.1423C7.51386 16.9037 5.55216 24.7471 6.8092 27.4969C8.89427 32.056 17.7391 32.2927 17.7391 32.2927V35.7638C17.7391 35.7638 12.6443 38.3646 11.6284 38.9681C10.5348 39.5927 11.2616 40.593 11.6984 40.7653C12.4276 41.052 14.2025 41.9901 19.234 41.9901C24.3923 41.9901 26.1272 40.9742 26.753 40.7653C26.9941 40.6852 28.2501 39.7294 26.7652 38.8503C24.1222 37.2853 21.0735 35.7638 21.0735 35.7638V32.2927Z" fill="#8899A6"/>
<path d="M31.0765 11.3827C31.0765 13.1843 28.2456 14.6448 19.2696 14.6448C10.2936 14.6448 7.46271 13.1843 7.46271 11.3827C7.46271 9.57993 10.2936 8.12061 19.2696 8.12061C28.2456 8.12061 31.0765 9.58104 31.0765 11.3827Z" fill="#CCD6DD"/>
<path d="M9.35659 11.5392C11.6262 22.098 6.67023 26.636 11.6717 28.3965C17.7091 30.5205 21.1657 30.1671 26.6295 28.3965C31.6311 26.776 28.2967 20.7553 28.9914 11.956C29.1714 9.69203 9.35659 11.5392 9.35659 11.5392Z" fill="#CCD6DD"/>
<path d="M10.0057 18.2082C9.91348 19.4119 8.79425 25.0202 9.31107 26.3128C9.8668 27.7021 11.2561 29.925 19.2218 29.925C25.0569 29.925 28.7614 28.1656 29.3638 25.9427C29.8872 24.0088 29.0859 19.7375 28.9936 18.1626" fill="#F4900C"/>
<path d="M19.4063 19.7831C24.6238 19.7831 28.8535 19.0366 28.8535 18.1159C28.8535 17.1951 24.6238 16.4487 19.4063 16.4487C14.1887 16.4487 9.95898 17.1951 9.95898 18.1159C9.95898 19.0366 14.1887 19.7831 19.4063 19.7831Z" fill="#FFCC4D"/>
<path d="M27.4587 7.44727C27.4587 7.44727 20.8768 22.9086 20.5333 23.6177C20.1143 24.4846 21.2013 25.7005 22.1671 24.1545C23.1319 22.6085 29.6594 8.92993 29.6594 8.92993L27.4587 7.44727Z" fill="#C1694F"/>
<path d="M19.1952 14.9763C14.426 14.9763 10.6682 13.8571 9.25552 13.1946C8.6998 12.9346 8.46084 12.2721 8.72092 11.7164C8.981 11.1596 9.64342 10.9206 10.1991 11.1818C10.2814 11.2207 18.765 14.8229 28.5958 11.0584C29.167 10.8373 29.8117 11.1251 30.0306 11.6986C30.2507 12.2721 29.9628 12.9145 29.3904 13.1346C25.8094 14.5061 22.2894 14.9763 19.1952 14.9763Z" fill="white"/>
<path d="M22.9607 17.9893L22.2261 19.7053C23.0008 19.6831 23.8343 19.6109 24.5423 19.513L25.0714 18.4349C24.3856 18.4472 23.6976 18.306 22.9607 17.9893Z" fill="#FFAC33"/>
<path d="M20.5333 23.6177C20.1143 24.4847 21.2013 25.7006 22.1671 24.1546C22.4872 23.6411 23.422 21.7883 24.5256 19.5454C23.871 19.6177 23.0196 19.6799 22.2172 19.7244C21.3202 21.8183 20.6378 23.4021 20.5333 23.6177Z" fill="#CC6F00"/>
<path d="M38.1875 12.6966C37.0538 10.9382 32.189 4.1451 31.9801 3.85279C31.7711 3.5627 31.4344 3.38932 31.0765 3.38932C29.4549 3.38932 25.7827 3.37154 23.0374 3.3582C21.3913 3.35042 20.0776 3.34375 19.7308 3.34375C19.0106 3.34375 18.4193 3.81611 18.2593 4.52077C17.8858 6.16571 19.9576 9.28998 27.0308 12.6821C31.7167 14.9283 34.4341 15.4007 35.889 15.4007H35.8901C37.5284 15.4007 38.1553 14.7883 38.3931 14.2748C38.631 13.7569 38.5532 13.1734 38.1875 12.6966Z" fill="#77B255"/>
<path d="M29.0103 13.5717C32.4958 15.0477 34.6542 15.4 35.8879 15.4H35.889C37.5273 15.4 38.1542 14.7876 38.392 14.2741C38.631 13.7573 38.5543 13.1738 38.1875 12.697C37.4617 11.5711 35.2077 8.38345 33.6239 6.15723C34.5264 9.02142 34.8587 13.3449 29.0103 13.5717Z" fill="#5C913B"/>
<path d="M31.2854 5.75224C32.3216 5.75224 33.1615 4.91227 33.1615 3.87612C33.1615 2.83997 32.3216 2 31.2854 2C30.2493 2 29.4093 2.83997 29.4093 3.87612C29.4093 4.91227 30.2493 5.75224 31.2854 5.75224Z" fill="#3E721D"/>
</svg>
