<svg width="44" height="44" viewBox="0 0 44 44" fill="none" xmlns="http://www.w3.org/2000/svg">
<path d="M21.9952 40.0054C33.1788 40.0054 42.2448 34.9687 42.2448 28.7556C42.2448 22.5426 33.1788 17.5059 21.9952 17.5059C10.8117 17.5059 1.74561 22.5426 1.74561 28.7556C1.74561 34.9687 10.8117 40.0054 21.9952 40.0054Z" fill="#939598"/>
<path d="M21.9952 37.7554C33.1788 37.7554 42.2448 32.7187 42.2448 26.5056C42.2448 20.2926 33.1788 15.2559 21.9952 15.2559C10.8117 15.2559 1.74561 20.2926 1.74561 26.5056C1.74561 32.7187 10.8117 37.7554 21.9952 37.7554Z" fill="#F1F2F2"/>
<path d="M21.9953 34.6303C31.1906 34.6303 38.645 30.7969 38.645 26.0681C38.645 21.3393 31.1906 17.5059 21.9953 17.5059C12.7999 17.5059 5.34558 21.3393 5.34558 26.0681C5.34558 30.7969 12.7999 34.6303 21.9953 34.6303Z" fill="#FFCC4D"/>
<path d="M14.1204 32.1306C13.4994 32.1306 12.9954 31.6278 12.9954 31.0056C12.9954 30.3835 13.4994 29.8807 14.1204 29.8807C16.2556 29.8807 17.5876 28.6601 17.6911 27.8163C17.7934 26.9883 16.6111 26.6002 16.097 26.472C15.0777 26.2189 14.3195 26.5091 13.4443 26.8489C12.2428 27.3146 10.597 27.9491 8.82511 26.1761C8.05 25.4021 7.84863 24.3716 8.27162 23.349C9.09623 21.359 12.146 19.7559 14.1204 19.7559C14.7414 19.7559 15.2454 20.2598 15.2454 20.8808C15.2454 21.5018 14.7414 22.0058 14.1204 22.0058C12.866 22.0058 10.7511 23.2422 10.3506 24.2108C10.2673 24.411 10.3011 24.4695 10.4158 24.5854C11.1234 25.2919 11.4598 25.2019 12.6332 24.7508C13.6029 24.375 14.9304 23.862 16.6426 24.2906C19.3245 24.9611 20.0963 26.6936 19.9242 28.092C19.68 30.0764 17.4424 32.1306 14.1204 32.1306ZM20.8703 33.2556C20.2493 33.2556 19.7453 32.7527 19.7453 32.1306C19.7453 31.5085 20.2493 31.0056 20.8703 31.0056C27.2793 31.0056 31.9322 29.6028 34.6996 26.8354C35.1395 26.3955 35.8505 26.3955 36.2903 26.8354C36.7302 27.2752 36.7302 27.9862 36.2903 28.4261C33.0853 31.6311 27.898 33.2556 20.8703 33.2556Z" fill="#FFE8B6"/>
<path d="M25.7628 28.9357C25.1587 28.9357 24.5602 28.8682 23.973 28.7208C23.3621 28.5689 21.5048 28.1043 21.4463 26.6025C21.4035 25.4775 22.1899 24.159 28.1264 22.1509C27.4795 21.6233 25.9237 20.8808 24.2452 20.8808C21.4181 20.8808 19.9737 21.1182 19.4157 21.6762C18.9758 22.116 18.2648 22.116 17.825 21.6762C17.3851 21.2363 17.3851 20.5253 17.825 20.0855C18.8993 19.0111 20.5789 18.6309 24.2452 18.6309C26.9407 18.6309 30.3156 20.1305 30.6306 22.0654C30.751 22.8102 30.4135 23.7596 29.1017 24.1973C26.1959 25.1659 24.6907 25.9398 24.0382 26.3988C24.1642 26.4427 24.3228 26.49 24.5186 26.5395C28.1534 27.4439 32.7557 23.8778 33.2574 22.962C33.3384 22.4209 33.8064 22.0058 34.37 22.0058C34.9921 22.0058 35.495 22.5098 35.495 23.1308C35.495 23.925 34.7806 24.8857 33.3722 25.9848C31.4113 27.5159 28.5471 28.9345 25.7628 28.9357Z" fill="#FFE8B6"/>
<path d="M32.12 24.8183C32.12 27.6138 29.8375 31.0056 24.2452 31.0056C18.6529 31.0056 19.7453 28.7557 10.7454 25.3808C6.94751 23.9565 16.403 19.7559 21.9952 19.7559C27.5875 19.7559 32.12 22.0227 32.12 24.8183Z" fill="#DD2E44"/>
<path d="M19.7453 28.7555C19.4573 28.7555 19.1693 28.6452 18.9499 28.4259C18.51 27.986 18.51 27.275 18.9499 26.8351C19.266 26.492 19.0759 26.3019 18.9499 26.1759C18.3222 25.5482 16.4322 25.4829 14.6232 26.3874C14.0664 26.6653 13.3914 26.4403 13.1135 25.8845C12.8356 25.3288 13.0606 24.6527 13.6164 24.3748C15.8405 23.2633 18.933 22.9776 20.5395 24.5863C21.948 25.9948 21.3112 27.6553 20.5395 28.427C20.3213 28.6452 20.0333 28.7555 19.7453 28.7555ZM24.2452 24.2556C21.5295 24.2556 20.0996 22.8257 18.9499 21.676C18.51 21.2361 18.51 20.5251 18.9499 20.0853C19.3898 19.6454 20.1008 19.6454 20.5406 20.0853C21.6139 21.1585 22.461 22.0056 24.2452 22.0056C25.1148 22.0056 27.1544 22.0056 27.9497 21.2102C28.3896 20.7704 29.1006 20.7704 29.5405 21.2102C29.9803 21.6501 29.9803 22.3611 29.5405 22.801C28.0859 24.2556 25.4917 24.2556 24.2452 24.2556ZM24.2452 28.7555C23.6231 28.7555 23.1202 28.2526 23.1202 27.6305C23.1202 27.0084 23.6231 26.5055 24.2452 26.5055C26.323 26.5055 29.3616 25.4233 30.1997 24.5852C30.6396 24.1453 31.3506 24.1453 31.7904 24.5852C32.2303 25.0251 32.2303 25.736 31.7904 26.1759C30.3381 27.6283 26.5413 28.7555 24.2452 28.7555Z" fill="#EA596E"/>
<path d="M20.8713 24.2559C20.4585 24.2559 20.0614 24.0287 19.8634 23.6338C18.7395 21.3872 16.4018 16.7118 15.2532 7.52072C15.1767 6.90423 15.6132 6.34175 16.2297 6.26525C16.8417 6.1865 17.4087 6.62524 17.4852 7.24173C18.5865 16.0503 20.8072 20.4929 21.8748 22.6281C22.1527 23.1838 21.9277 23.8599 21.372 24.1378C21.2122 24.2177 21.0401 24.2559 20.8713 24.2559Z" fill="#FFAC33"/>
<path d="M41.2605 14.1782L24.1158 9.11239C20.346 3.13987 15.6042 4.10061 12.9954 4.00611C12.7141 3.99598 12.074 4.2536 12.0583 4.70922C12.0414 5.15021 13.2125 5.08834 13.3925 5.09509C15.3106 5.16484 17.8305 5.29308 20.2909 7.89178C17.3007 6.85005 12.7074 6.18069 11.8704 6.25607C11.3552 6.30331 11.3079 6.67793 11.9177 6.95918C12.4183 7.19092 17.0611 8.81202 19.6125 9.59163C18.0162 10.1417 15.9158 10.396 12.3744 8.62415C11.8153 8.34515 11.0233 7.95028 10.7454 8.50602C10.4676 9.06176 11.3147 9.35313 11.8704 9.631C14.3004 10.846 15.7291 12.2545 17.2962 12.2545C19.1591 12.2545 20.5069 11.6863 21.5621 11.2431C21.9367 11.0856 22.2753 10.9472 22.578 10.8572C22.596 10.8685 22.6095 10.8842 22.6275 10.8944L39.2828 18.3102C39.8284 18.6083 41.0512 17.4204 41.3494 16.8759C41.6475 16.3291 41.6643 14.429 41.2605 14.1782Z" fill="#99AAB5"/>
<path d="M16.3703 23.1306C16.0823 23.1306 15.7943 23.0203 15.575 22.801C14.0956 21.3216 10.5733 12.8258 15.4917 6.67776C15.8798 6.19177 16.5897 6.11415 17.0723 6.50226C17.5583 6.89038 17.6371 7.59799 17.2478 8.08286C13.1439 13.2139 16.3726 20.416 17.1646 21.2091C17.6044 21.649 17.6044 22.36 17.1646 22.7998C16.9463 23.0203 16.6583 23.1306 16.3703 23.1306Z" fill="#FFAC33"/>
</svg>
