<svg width="44" height="44" viewBox="0 0 44 44" fill="none" xmlns="http://www.w3.org/2000/svg">
<path d="M21.9953 13.0908C10.5407 13.0908 0.358887 17.4957 0.358887 24.5454C0.358887 29.8323 5.4498 34.2372 13.0862 34.2372C17.4822 34.2372 22.1365 31.5835 25.466 31.5835C25.5843 31.5835 25.7002 31.5874 25.8134 31.5937C30.7885 31.8928 30.9043 35.9999 37.268 35.9999C40.2474 35.9999 43.6316 33.3565 43.6316 27.1888C43.6316 19.2585 34.7225 13.0908 21.9953 13.0908Z" fill="#FFD983"/>
<path d="M41.0862 22H43.6316V27.091H41.0862V22ZM0.358887 19.4546H2.90434V24.5455H0.358887V19.4546Z" fill="#FFD983"/>
<path d="M37.268 30.0283C34.3776 30.0283 33.0909 29.0673 31.598 27.9563C30.2374 26.9419 28.6949 25.7939 25.9241 25.6259C25.7727 25.617 25.6212 25.6119 25.466 25.6119C23.6421 25.6119 21.6758 26.2266 19.5949 26.8795C17.416 27.5604 15.1632 28.2655 13.0874 28.2655C6.45015 28.2655 1.63287 24.5593 1.63287 19.4544C1.63287 12.5868 12.1252 8.88062 21.9965 8.88062C33.796 8.88062 42.3601 14.4386 42.3601 22.0979C42.3589 27.9155 39.3132 30.0283 37.268 30.0283Z" fill="#A0041E"/>
<path d="M21.9953 9.76273C33.0565 9.76273 41.0862 14.9504 41.0862 22.098C41.0862 27.3722 38.4643 29.1464 37.268 29.1464C34.9338 29.1464 33.978 28.4349 32.5296 27.3556C31.0876 26.2815 29.2931 24.9438 26.0336 24.7478C25.8478 24.7364 25.6582 24.73 25.466 24.73C23.3685 24.73 21.28 25.3842 19.0705 26.0753C17.0138 26.7193 14.8883 27.3836 13.0862 27.3836C8.0258 27.3836 2.90434 24.6587 2.90434 19.4545C2.90434 13.1596 12.7413 9.76273 21.9953 9.76273ZM21.9953 8C10.5407 8 0.358887 12.4049 0.358887 19.4545C0.358887 24.7415 5.4498 29.1464 13.0862 29.1464C17.4822 29.1464 22.1365 26.4927 25.466 26.4927C25.5843 26.4927 25.7002 26.4965 25.8134 26.5029C30.7885 26.802 30.9043 30.9091 37.268 30.9091C40.2474 30.9091 43.6316 28.2656 43.6316 22.098C43.6316 14.1676 34.7225 8 21.9953 8Z" fill="#FFE8B6"/>
<path d="M19.6547 9.83647C19.6547 9.83647 23.268 9.76265 25.8135 11.5241C27.0862 12.4048 26.2398 14.3877 26.2398 14.3877L28.3589 15.0496C28.3589 15.0496 28.28 13.9868 32.1771 13.2868C35.042 12.7727 37.9578 15.0496 37.9578 15.0496C37.9578 15.0496 34.7225 10.6434 28.3589 9.76265C21.9953 8.88065 19.6547 9.83647 19.6547 9.83647Z" fill="#FFE8B6"/>
<path d="M30.9044 16.8113C30.9044 18.7573 28.6249 20.3355 25.8134 20.3355C23.002 20.3355 20.7225 18.7573 20.7225 16.8113C20.7225 14.8653 23.002 13.2871 25.8134 13.2871C28.6249 13.2871 30.9044 14.8653 30.9044 16.8113Z" fill="#E6E7E8"/>
<path d="M28.3589 16.8113C28.3589 17.7849 27.2185 18.574 25.8134 18.574C24.4083 18.574 23.2679 17.7849 23.2679 16.8113C23.2679 15.8376 24.4083 15.0498 25.8134 15.0498C27.2185 15.0498 28.3589 15.8376 28.3589 16.8113Z" fill="#A7A9AC"/>
</svg>
