<svg width="44" height="44" viewBox="0 0 44 44" fill="none" xmlns="http://www.w3.org/2000/svg">
<path d="M21.9054 40.0684C3.96259 40.0684 1.51312 23.2747 1.51312 18.4766H42.2977C42.2977 20.8757 39.949 40.0684 21.9054 40.0684Z" fill="#CCD6DD"/>
<path d="M42.2977 18.5435C42.2977 24.8003 33.1679 29.872 21.9054 29.872C10.6429 29.872 1.51312 24.7991 1.51312 18.5435C1.51312 12.2867 10.6429 8.41455 21.9054 8.41455C33.1679 8.41335 42.2977 12.2867 42.2977 18.5435Z" fill="#66757F"/>
<path d="M3.56196 20.7256C2.59273 19.3329 0.763422 16.5272 2.71268 12.3288C3.56196 10.13 5.32769 8.69774 5.56161 9.38028C6.111 10.9793 7.21098 12.3791 8.86036 12.2292C8.83877 12.7966 8.05786 7.06036 10.8096 5.53094C12.1591 4.78122 13.6082 5.98077 15.2575 8.62937C17.8989 12.8722 24.6272 10.8893 26.5153 9.77853C28.4274 8.65336 30.1019 7.91683 29.6017 4.90597C29.4914 4.24502 30.493 3.67164 31.515 4.21863C33.2315 5.13749 35.711 7.42262 36.1488 9.92967C37.3736 10.2547 38.2912 9.73415 38.9978 8.30549C39.348 7.59776 40.5476 7.43102 41.061 8.35467C41.9654 9.98125 43.4505 14.9846 41.3477 19.2765C38.9486 24.1743 35.2996 26.7737 27.1031 27.8233C18.9066 28.8729 8.36015 27.623 3.56196 20.7256Z" fill="#77B255"/>
<path d="M23.6051 10.2548C23.6051 12.781 21.434 14.8275 18.7566 14.8275C16.0792 14.8275 13.908 12.7798 13.908 10.2548C13.908 7.72975 16.0792 5.68213 18.7566 5.68213C21.434 5.68093 23.6051 7.72975 23.6051 10.2548Z" fill="#5C913B"/>
<path d="M22.4056 10.2547C22.4056 12.156 20.7719 13.6962 18.7566 13.6962C16.7414 13.6962 15.1076 12.1548 15.1076 10.2547C15.1076 8.35343 16.7414 6.81201 18.7566 6.81201C20.7719 6.81321 22.4056 8.35463 22.4056 10.2547Z" fill="#C6E5B3"/>
<path d="M10.1103 17.8768C11.6287 17.8768 12.8596 16.8027 12.8596 15.4777C12.8596 14.1527 11.6287 13.0786 10.1103 13.0786C8.59183 13.0786 7.3609 14.1527 7.3609 15.4777C7.3609 16.8027 8.59183 17.8768 10.1103 17.8768Z" fill="#292F33"/>
<path d="M21.3344 16.2955C22.8542 19.16 18.8106 17.4362 15.7997 19.0352C12.7877 20.6342 11.9504 24.9478 10.4293 22.0833C8.90832 19.2188 10.1175 15.6009 13.1283 14.0019C16.1404 12.4041 19.8146 13.4309 21.3344 16.2955Z" fill="#DD2E44"/>
<path d="M29.303 15.4779C30.8214 15.4779 32.0524 14.4038 32.0524 13.0788C32.0524 11.7538 30.8214 10.6797 29.303 10.6797C27.7846 10.6797 26.5536 11.7538 26.5536 13.0788C26.5536 14.4038 27.7846 15.4779 29.303 15.4779Z" fill="#292F33"/>
<path d="M35.2408 22.2297C33.3647 24.005 33.8277 20.5359 31.9612 18.5638C30.0923 16.5918 26.6041 16.8665 28.4789 15.09C30.3538 13.3134 33.3899 13.4718 35.2564 15.4426C37.1241 17.4135 37.1169 20.4531 35.2408 22.2297Z" fill="#9266CC"/>
<path d="M34.0413 23.4296C32.1652 25.2049 32.6282 21.7358 30.7617 19.7626C28.8928 17.7917 25.4045 18.0652 27.2794 16.2887C29.1543 14.5122 32.1904 14.6705 34.0569 16.6414C35.9245 18.6134 35.9173 21.6531 34.0413 23.4296Z" fill="#E1E8ED"/>
<path d="M29.1183 21.9889C30.0551 24.4623 26.9615 22.6546 24.3609 23.6407C21.7627 24.6255 20.6423 28.0286 19.7054 25.5563C18.7686 23.0853 20.1169 20.2807 22.7151 19.2959C25.3145 18.3111 28.1802 19.5178 29.1183 21.9889Z" fill="#DD2E44"/>
<path d="M11.0591 20.9763C10.8588 19.1266 14.4574 10.8785 20.8558 18.077C19.3563 18.3265 15.7073 18.3265 14.0579 20.626C12.4086 22.9256 10.9091 20.8755 11.0591 20.9763Z" fill="#EA596E"/>
<path d="M6.21174 21.726C5.33847 20.5613 8.31094 17.8767 10.5601 20.175C11.5101 19.0258 16.2076 16.7275 17.9577 21.726C18.7578 20.8264 25.3049 20.626 25.4045 26.1739C25.4537 26.9236 17.8533 26.7809 13.9584 25.874C11.8088 25.3738 7.86111 23.9248 6.21174 21.726ZM31.5018 25.0236C30.1019 25.4014 32.453 18.8759 36.8505 19.9759C37.0005 18.7763 37.9493 14.8274 40.6987 15.528C40.7982 16.6771 40.7479 22.5237 31.5018 25.0236Z" fill="#A6D388"/>
</svg>
