<svg width="44" height="44" viewBox="0 0 44 44" fill="none" xmlns="http://www.w3.org/2000/svg">
<path d="M16.3799 38.4314C1.41627 36.2277 1.66805 21.2017 1.66805 16.6562H43.2236C43.2236 18.9956 43.3299 35.9307 27.1819 38.556C24.6862 38.9618 19.2888 38.8604 16.3799 38.4314Z" fill="#292F33"/>
<path d="M41.2534 12.0691C44.2686 5.25646 31.0711 5.64758 27.7662 6.71335C26.0648 6.51535 24.2877 6.40291 22.4458 6.40291C10.9704 6.40291 1.66806 10.3482 1.66806 16.7234C1.66806 17.9566 2.02373 19.1421 2.66784 20.2568C-2.62072 27.2381 7.85739 28.5508 13.8927 27.2357C16.5034 27.892 19.3927 28.2672 22.4458 28.2672C33.9213 28.2672 43.2236 23.0985 43.2236 16.7246C43.2236 14.9768 42.5037 13.4197 41.2534 12.0691Z" fill="#66757F"/>
<path d="M22.4458 26.4339C32.571 26.4339 40.7792 22.6034 40.7792 17.8783C40.7792 13.1532 32.571 9.32275 22.4458 9.32275C12.3206 9.32275 4.11249 13.1532 4.11249 17.8783C4.11249 22.6034 12.3206 26.4339 22.4458 26.4339Z" fill="#FFCC4D"/>
<path d="M5.33473 15.434C4.67229 12.783 7.77917 8.10064 13.8903 9.32286C15.1125 8.10064 17.359 6.87842 21.2236 6.87842C23.6681 6.87842 28.0827 9.04786 26.1125 12.9895C24.8903 15.434 20.0014 19.1006 13.8903 16.6562C12.6681 17.8784 6.55695 20.3229 5.33473 15.434Z" fill="#77B255"/>
<path d="M15.1125 16.6561C14.8081 16.7001 14.5368 16.7453 14.2838 16.7917C20.2091 18.9257 24.9171 15.3801 26.1125 12.9894C27.43 10.3543 25.8913 8.51605 23.9968 7.5835C24.4784 9.81038 22.6181 15.5842 15.1125 16.6561Z" fill="#5C913B"/>
<path d="M6.55696 15.4339C7.19863 13.8291 12.6681 11.7672 18.7792 19.1006C20.0014 20.3228 24.3843 21.039 26.1125 22.7672C27.3347 23.9894 26.1125 25.2117 21.2236 25.2117C16.3347 25.2117 4.11252 21.545 6.55696 15.4339Z" fill="#D99E82"/>
<path d="M7.82928 20.3447C10.9435 23.4528 17.8393 25.2116 21.2236 25.2116C26.1125 25.2116 27.3347 23.9894 26.1125 22.7672C25.7141 22.3687 25.1714 22.0253 24.5627 21.7161C20.6467 23.8342 10.2872 21.5401 7.82928 20.3447Z" fill="#B27962"/>
<path d="M33.4458 19.1018C33.1904 19.1018 32.9288 19.0602 32.6722 18.9747L29.0055 17.7525C27.7246 17.3247 27.0328 15.9411 27.4594 14.6602C27.886 13.3806 29.2671 12.6876 30.5516 13.1141L34.2183 14.3364C35.4992 14.7641 36.191 16.1477 35.7644 17.4286C35.4234 18.454 34.4701 19.1018 33.4458 19.1018ZM32.2236 22.7672H29.7792C29.1033 22.7672 28.557 22.2209 28.557 21.545C28.557 20.8691 29.1033 20.3228 29.7792 20.3228H32.2236C32.8995 20.3228 33.4458 20.8691 33.4458 21.545C33.4458 22.2209 32.8995 22.7672 32.2236 22.7672Z" fill="#FFE8B6"/>
</svg>
